<?xml version="1.0" encoding="utf-8"?>
<!-- Generator: Adobe Illustrator 22.1.0, SVG Export Plug-In . SVG Version: 6.00 Build 0)  -->
<svg version="1.1" id="Слой_1" xmlns="http://www.w3.org/2000/svg" xmlns:xlink="http://www.w3.org/1999/xlink" x="0px" y="0px"
	 viewBox="0 0 20 20" style="enable-background:new 0 0 20 20;" xml:space="preserve">
<style type="text/css">
	.st0{fill:#FFFFFF;}
</style>
<g>
	<path class="st0" d="M18.7,0H1.3C0.6,0,0,0.6,0,1.3v17.4C0,19.4,0.6,20,1.3,20h17.4c0.7,0,1.3-0.6,1.3-1.3V1.3
		C20,0.6,19.4,0,18.7,0z M16.6,12.2c0.4,0.4,1.2,1,1,1.6c-0.1,0.6-1,0.4-1.9,0.4c-1,0-1.5,0.1-2.1-0.4c-0.3-0.2-0.4-0.5-0.7-0.8
		c-0.2-0.3-0.5-0.7-0.9-0.7c-0.7,0-0.5,1.1-0.8,1.8C7.1,14.7,5.5,12.2,4,9.7C3.3,8.6,2.3,6,2.3,6l2.9,0c0,0,0.9,1.7,1.2,2.1
		c0.2,0.4,0.4,0.7,0.7,1c0.2,0.3,0.5,0.8,0.9,0.8c0.6-0.1,0.7-2.2,0.3-3C8.1,6.6,7.8,6.5,7.4,6.4c0.1-0.7,3.2-0.9,3.7-0.3
		c0.7,0.8-0.5,3.1,0.5,3.8C13.1,9.1,14.3,6,14.3,6l3.4,0c0,0-0.5,1.7-1.1,2.4c-0.3,0.4-1.4,1.4-1.4,2.1
		C15.3,11.2,16.1,11.7,16.6,12.2z"/>
</g>
</svg>
